M48
; DRILL file {KiCad 9.0.7} date 2026-06-11T10:43:00-0300
; FORMAT={-:-/ absolute / metric / decimal}
; #@! TF.CreationDate,2026-06-11T10:43:00-03:00
; #@! TF.GenerationSoftware,Kicad,Pcbnew,9.0.7
; #@! TF.FileFunction,Plated,1,2,PTH
FMAT,2
METRIC
; #@! TA.AperFunction,Plated,PTH,ViaDrill
T1C0.300
; #@! TA.AperFunction,Plated,PTH,ComponentDrill
T2C0.950
; #@! TA.AperFunction,Plated,PTH,ComponentDrill
T3C1.000
; #@! TA.AperFunction,Plated,PTH,ComponentDrill
T4C1.100
; #@! TA.AperFunction,Plated,PTH,ComponentDrill
T5C1.200
; #@! TA.AperFunction,Plated,PTH,ComponentDrill
T6C1.500
; #@! TA.AperFunction,Plated,PTH,ComponentDrill
T7C1.800
; #@! TA.AperFunction,Plated,PTH,ComponentDrill
T8C2.000
%
G90
G05
T1
X95.4Y-80.4
X96.0Y-105.4
X96.8Y-95.6
X98.9Y-82.275
X100.975Y-91.05
X101.6Y-86.8
X102.9Y-109.6
X104.0Y-71.2
X104.925Y-95.825
X105.0Y-92.5
X105.15Y-85.9
X105.175Y-87.925
X105.4Y-82.65
X106.4Y-86.2
X110.4Y-97.4
X111.6Y-93.6
X111.75Y-82.2
X113.2Y-105.2
X120.85Y-92.525
X121.2Y-72.8
X121.4Y-89.0
X121.525Y-111.6
X122.225Y-95.65
X122.625Y-108.95
X122.925Y-101.125
X123.925Y-82.175
X124.15Y-98.0
X126.7Y-103.025
X127.15Y-108.5
X127.2Y-90.0
X128.375Y-100.625
X128.4Y-85.175
X130.08Y-86.275
X133.3Y-82.825
X133.975Y-102.025
X134.4Y-99.0
X134.55Y-86.325
X134.8Y-91.2
X135.825Y-87.075
X136.195Y-76.975
X137.075Y-82.925
X138.2Y-80.23
X139.0Y-73.8
X139.4Y-108.6
X143.4Y-82.0
X144.8Y-101.4
X147.8Y-90.0
X151.2Y-102.8
X151.6Y-90.0
X152.0Y-97.4
X152.8Y-81.0
X152.8Y-91.8
X153.0Y-94.6
X154.0Y-83.2
X154.2Y-82.0
X156.0Y-92.8
X156.6Y-87.2
X159.0Y-81.6
X166.2Y-86.6
X185.17Y-79.57
X186.0Y-75.8
X188.0Y-85.0
X194.6Y-79.2
T2
X100.4Y-106.4
X100.7Y-112.8
X102.9Y-106.4
X103.2Y-112.8
X105.4Y-106.4
X105.7Y-112.8
X108.2Y-112.8
X111.5Y-101.4
X114.0Y-101.4
X116.5Y-101.4
X119.0Y-101.4
T3
X118.2Y-107.2
X146.47Y-75.1
X149.01Y-75.1
X151.55Y-75.1
X154.09Y-75.1
T4
X150.97Y-108.03
X150.97Y-110.57
X150.97Y-113.11
T5
X160.172Y-112.688
X165.252Y-112.688
X174.597Y-112.762
X179.677Y-112.762
T6
X186.4Y-89.1
X194.0Y-89.1
T7
X186.4Y-112.6
X194.0Y-109.1
T8
G00X173.387Y-86.803
M15
G01X170.913Y-89.277
M16
G05
G00X173.387Y-98.803
M15
G01X170.913Y-101.277
M16
G05
M30
