M48
; DRILL file {KiCad 9.0.2} date 2026-01-23T08:27:41-0300
; FORMAT={-:-/ absolute / inch / decimal}
; #@! TF.CreationDate,2026-01-23T08:27:41-03:00
; #@! TF.GenerationSoftware,Kicad,Pcbnew,9.0.2
; #@! TF.FileFunction,Plated,1,2,PTH
FMAT,2
INCH
; #@! TA.AperFunction,Plated,PTH,ViaDrill
T1C0.0118
; #@! TA.AperFunction,Plated,PTH,ComponentDrill
T2C0.0354
; #@! TA.AperFunction,Plated,PTH,ComponentDrill
T3C0.0374
; #@! TA.AperFunction,Plated,PTH,ComponentDrill
T4C0.0394
; #@! TA.AperFunction,Plated,PTH,ComponentDrill
T5C0.0433
; #@! TA.AperFunction,Plated,PTH,ComponentDrill
T6C0.0472
; #@! TA.AperFunction,Plated,PTH,ComponentDrill
T7C0.0591
; #@! TA.AperFunction,Plated,PTH,ComponentDrill
T8C0.0709
; #@! TA.AperFunction,Plated,PTH,ComponentDrill
T9C0.0787
%
G90
G05
T1
X3.7358Y-3.8472
X3.75Y-4.1209
X3.8465Y-2.8602
X4.0713Y-3.8941
X4.1472Y-3.3921
X4.1717Y-3.1961
X4.2457Y-3.8677
X4.2472Y-3.6063
X4.249Y-3.3931
X4.2496Y-3.7803
X4.265Y-2.765
X4.337Y-3.172
X4.349Y-3.3906
X4.5528Y-4.0571
X4.652Y-3.1933
X4.689Y-3.5421
X4.7311Y-3.8591
X4.7571Y-2.9055
X4.8465Y-3.7409
X4.848Y-3.2102
X4.928Y-4.2228
X4.9783Y-3.3949
X5.0268Y-4.0429
X5.0547Y-3.1177
X5.1201Y-3.9031
X5.2394Y-3.8237
X5.2602Y-3.2146
X5.3474Y-3.1161
X5.388Y-3.212
X5.3969Y-3.5287
X5.398Y-3.2941
X5.4902Y-4.2894
X5.561Y-3.5366
X5.5681Y-3.2528
X5.5738Y-3.7827
X5.6138Y-3.898
X5.6201Y-3.6
X5.7012Y-3.7217
X5.7205Y-4.085
X5.8252Y-3.7752
X6.0055Y-3.0807
X6.0646Y-3.2102
X6.1524Y-3.8803
X6.1803Y-3.2949
X6.2776Y-3.0035
X6.6Y-3.6894
X6.6264Y-3.9311
X7.0067Y-3.9228
T2
X6.1654Y-2.7177
X6.2654Y-2.7177
T3
X3.9528Y-4.3553
X4.0512Y-4.3553
X4.1496Y-4.3553
X4.8287Y-4.3848
X4.9272Y-4.3848
X5.0256Y-4.3848
T4
X5.737Y-2.9272
X5.837Y-2.9272
X5.937Y-2.9272
X6.037Y-2.9272
T5
X5.9437Y-4.2531
X5.9437Y-4.3531
X5.9437Y-4.4531
T6
X6.306Y-4.4365
X6.506Y-4.4365
X7.3965Y-4.4075
X7.5965Y-4.4075
T7
X7.3386Y-3.0768
X7.6378Y-3.0768
T8
X7.3386Y-4.002
X7.6378Y-3.8642
T9
X6.6004Y-3.0902
X6.6004Y-3.5843
X6.9547Y-3.0902
X6.9547Y-3.5843
M30
